<?xml version="1.0" encoding="UTF-8" standalone="no"?>
<svg
   xmlns:dc="http://purl.org/dc/elements/1.1/"
   xmlns:cc="http://creativecommons.org/ns#"
   xmlns:rdf="http://www.w3.org/1999/02/22-rdf-syntax-ns#"
   xmlns:svg="http://www.w3.org/2000/svg"
   xmlns="http://www.w3.org/2000/svg"
   xmlns:sodipodi="http://sodipodi.sourceforge.net/DTD/sodipodi-0.dtd"
   xmlns:inkscape="http://www.inkscape.org/namespaces/inkscape"
   id="Warstwa_1"
   data-name="Warstwa 1"
   viewBox="0 0 500 573"
   version="1.1"
   sodipodi:docname="husarnet_signet.svg"
   width="500"
   height="573"
   inkscape:version="0.92.4 (5da689c313, 2019-01-14)">
  <metadata
     id="metadata13">
    <rdf:RDF>
      <cc:Work
         rdf:about="">
        <dc:format>image/svg+xml</dc:format>
        <dc:type
           rdf:resource="http://purl.org/dc/dcmitype/StillImage" />
        <dc:title>signet_red</dc:title>
      </cc:Work>
    </rdf:RDF>
  </metadata>
  <sodipodi:namedview
     pagecolor="#ffffff"
     bordercolor="#666666"
     borderopacity="1"
     objecttolerance="10"
     gridtolerance="10"
     guidetolerance="10"
     inkscape:pageopacity="0"
     inkscape:pageshadow="2"
     inkscape:window-width="640"
     inkscape:window-height="480"
     id="namedview11"
     showgrid="false"
     inkscape:zoom="0.295"
     inkscape:cx="400"
     inkscape:cy="400"
     inkscape:window-x="0"
     inkscape:window-y="0"
     inkscape:window-maximized="0"
     inkscape:current-layer="Warstwa_1" />
  <defs
     id="defs4">
    <style
       id="style2">.cls-1{fill:#ed1c24;}</style>
  </defs>
  <title
     id="title6">signet_red</title>
  <path
     class="cls-1"
     d="m 486.92712,138.22458 -221.72,-128 a 23.18,23.18 0 0 0 -23.16,0 l -164.980001,95.25 v 0 l -16.79,9.66 a 11.58,11.58 0 0 0 11.54,20.07 l 129.070001,-74.22 a 11.51,11.51 0 0 0 2,-1.45 l 39.23,-22.64 v 96.72 l -118.09,67.92 -83.400001,-47.93 -15.87,-9.89 a 10.41,10.41 0 0 0 -15.92,8.84 v 4.62 c 0,0.37 -0.13,0.72 -0.13,1.1 v 256 a 23.15,23.15 0 0 0 11.58,20 l 165.650001,95.64 v -0.07 l 16.8,9.71 a 11.58,11.58 0 1 0 11.58,-20 l -85.07,-49.08 c -0.16,-0.1 -0.34,-0.14 -0.5,-0.23 l -83.540001,-48.23 79.490001,-43 78.48,45.31 a 11.42,11.42 0 0 0 5.77,1.55 11.57,11.57 0 0 0 5.8,-21.6 l -79.32,-45.8 v -88.7 a 11.58,11.58 0 1 0 -23.16,0 v 89.62 l -80.370001,43.46 v -227.59 l 209.280001,120.33 v 261.25 a 11,11 0 0 0 16.45,9.57 l 28,-15.88 v 0 l 1.46,-0.84 9,-5.11 c 0.15,-0.09 0.23,-0.23 0.37,-0.32 l 190.47,-109.91 a 23.15,23.15 0 0 0 11.58,-20 v -256 a 23.14,23.14 0 0 0 -11.58,-20.13 z m -339.68,76.66 106.38,-61.16 80,46.2 a 11.581909,11.581909 0 1 0 11.6,-20.05 l -80,-46.16 v -96.73 l 201.22,116.14 -214.11,122.18 z m 117.08,321.25 v -241 l 107.5,-61.36 v 124.7 l -84.2,48.57 a 11.58,11.58 0 1 0 11.58,20 l 84.31,-48.57 77.35,44.22 z m 211,-131.85 -80.38,-46 v -137.72 l 80.38,-45.87 z"
     id="path8"
     inkscape:connector-curvature="0"
     style="fill:#ed1c24" />
</svg>
